<?xml version="1.0" encoding="utf-8"?>
<!-- Generator: Adobe Illustrator 15.1.0, SVG Export Plug-In . SVG Version: 6.00 Build 0)  -->
<!DOCTYPE svg PUBLIC "-//W3C//DTD SVG 1.1//EN" "http://www.w3.org/Graphics/SVG/1.1/DTD/svg11.dtd">
<svg version="1.1" id="Layer_1" xmlns="http://www.w3.org/2000/svg" xmlns:xlink="http://www.w3.org/1999/xlink" x="0px" y="0px"
	 width="209px" height="153px" viewBox="492.775 255.445 209 153" enable-background="new 492.775 255.445 209 153"
	 xml:space="preserve">
<g>
	<g>
		<defs>
			<rect id="SVGID_1_" x="0" y="0" width="1190.552" height="841.892"/>
		</defs>
		<clipPath id="SVGID_2_">
			<use xlink:href="#SVGID_1_"  overflow="visible"/>
		</clipPath>
		<path clip-path="url(#SVGID_2_)" fill="#A4B5C1" d="M551.462,294.905c-0.863-0.165-1.669-0.322-2.476-0.472
			c-1.26-0.234-2.521-0.461-3.781-0.696c-0.76-0.142-0.946,0.018-0.965,0.803c-0.011,0.486,0.127,0.976,0.001,1.494
			c-0.325-0.145-0.45-0.414-0.588-0.658c-0.226-0.403-0.407-0.834-0.508-1.283c-0.138-0.616-0.349-1.132-1.076-1.221
			c-0.196-0.023-0.252-0.192-0.306-0.366c-0.672-2.135-1.342-4.268-2.028-6.397c-0.077-0.241-0.024-0.368,0.164-0.513
			c0.996-0.758,1.985-1.521,2.968-2.294c0.356-0.28,0.773-0.237,1.174-0.275c1.021-0.098,2.054-0.13,3.066-0.276
			c1.609-0.23,3.15-0.763,4.72-1.173c3.503-0.915,7.001-1.85,10.501-2.778c0.047-0.012,0.092-0.034,0.181-0.068
			c-1.011-1.55-2.037-3.102-0.766-4.995c0.097,1.128,0.878,1.736,1.698,2.301c1.462,1.004,3.118,1.626,4.709,2.377
			c0.298,0.142,0.367-0.079,0.488-0.213c0.92-1.021,1.912-1.962,3.03-2.764c0.461-0.329,0.948-0.614,1.479-0.819
			c0.802-0.309,1.354-0.113,1.761,0.647c0.421,0.784,0.554,1.651,0.614,2.522c0.075,1.104,0.054,1.093,1.17,0.994
			c3.905-0.347,7.814-0.611,11.729-0.791c0.822-0.038,1.646-0.016,2.47-0.004c0.584,0.007,0.658,0.094,0.571,0.679
			c-0.072,0.51-0.265,0.989-0.461,1.463c-0.566,1.361-1.271,2.652-2.032,3.911c-0.207,0.344-0.211,0.54,0.082,0.854
			c2.491,2.663,4.963,5.349,7.438,8.028c0.079,0.085,0.15,0.178,0.256,0.304c-1.058,0.2-2.072,0.386-3.082,0.587
			c-0.453,0.09-0.891,0.23-1.326,0.391c-0.441,0.163-0.516,0.396-0.332,0.821c0.974,2.243,2.039,4.442,3.082,6.653
			c0.239,0.506,0.484,1.009,0.762,1.586c-1.236-0.302-2.391-0.593-3.549-0.859c-0.916-0.212-1.834-0.427-2.775-0.467
			c-0.61-0.026-0.671,0.066-0.415,0.642c0.669,1.504,1.536,2.903,2.395,4.302c1.064,1.734,2.16,3.449,3.304,5.269
			c-4.271-1.226-8.451-2.426-12.722-3.651c1.3,3.705,2.94,7.15,4.781,10.504c1.834,3.341,3.864,6.565,6,9.853
			c-4.81-0.872-9.508-1.725-14.297-2.595c0.381,0.991,0.569,1.922,1.154,2.723c0.96,1.312,1.833,2.687,2.772,4.015
			c0.213,0.303,0.168,0.481-0.037,0.746c-1.813,2.365-3.606,4.745-5.426,7.106c-0.24,0.314-0.231,0.463,0.094,0.704
			c1.973,1.453,3.925,2.932,5.884,4.402c0.096,0.07,0.186,0.146,0.338,0.267c-0.909,0.228-1.761,0.428-2.603,0.656
			c-1.422,0.385-2.807,0.857-4.103,1.578c-0.871,0.484-1.236,1.216-1.322,2.166c-0.198,2.21,0.031,4.412,0.07,6.618
			c0.048,2.671,0.08,5.343-0.678,7.947c-0.178,0.61-0.42,1.196-0.762,1.731c-1.021,1.601-1.401,3.393-1.617,5.241
			c-0.207,1.784-0.159,3.59-0.491,5.364c-0.236,1.26-0.765,2.212-2.136,2.591c-1.102,0.305-1.681,1.243-2.103,2.249
			c-0.584,1.392-0.791,2.86-0.819,4.357c-0.013,0.657-0.005,0.647-0.678,0.68c-2.24,0.106-4.478,0.29-6.72,0.315
			c-0.084,0.002-0.176-0.003-0.209,0.102h-7.611c-0.561-0.109-1.132-0.11-1.696-0.151c-0.589-0.043-0.925-0.341-1.168-0.811
			c-0.231-0.447-0.351-0.927-0.369-1.433c-0.059-1.58,0.052-3.148,0.344-4.705c0.105-0.572,0.206-1.146,0.346-1.713
			c0.188-0.766,0.326-0.857,1.117-0.684c1.741,0.381,3.486,0.736,5.241,1.055c1.398,0.255,2.811,0.421,4.226,0.562
			c0.774,0.077,1.356-0.176,1.771-0.867c0.571-0.957,0.869-2.011,1.148-3.07c0.686-2.59,1.07-5.235,1.428-7.886
			c0.321-2.392,0.556-4.795,0.813-7.196c0.277-2.579,0.288-5.152,0.045-7.739c-0.591-6.285-1.684-12.491-2.879-18.683
			c-0.157-0.805-0.32-0.912-1.12-0.782c-0.254,0.042-0.511,0.058-0.764,0.107c-0.64,0.124-0.73,0.229-0.604,0.862
			c0.259,1.276,0.492,2.558,0.74,3.837c0.865,4.474,1.714,8.952,2.576,13.428c0.061,0.317,0.251,0.701-0.08,0.962
			c-0.317,0.25-0.631-0.028-0.909-0.152c-3.212-1.421-6.564-2.313-9.769-3.759c-0.314-0.143-0.358-0.855-0.434-1.176
			c-0.035-0.151-0.053-0.305-0.048-0.459c0.062-2.022-0.163-4.04-0.104-6.062c0.019-0.587-0.069-1.162-0.111-1.742
			c-0.035-0.479-0.19-0.63-0.684-0.645c-0.754-0.021-1.51,0.001-2.264-0.011c-0.855-0.013-0.963-0.129-0.828-0.975
			c0.313-1.98,0.622-3.96,0.953-5.938c0.161-0.966,0.088-1.037-0.852-0.8c-1.216,0.305-2.429,0.606-3.673,0.761
			c-0.707,0.087-0.903-0.096-0.858-0.813c0.188-2.977,0.952-5.807,2.156-8.525c1.934-4.368,4.646-8.221,7.8-11.782
			c1.181-1.334,2.373-2.654,3.712-3.84c0.466-0.412,0.925-0.52,1.498-0.435c0.932,0.137,1.856,0.314,2.809,0.27
			c1.774-0.084,3.506-0.339,5.154-1.056c2.35-1.021,4.231-3.762,4.207-6.239c-0.019-1.694-0.775-3.055-1.986-4.194
			c0.609,0.749,1.219,1.492,1.393,2.493c0.264,1.521-0.079,2.899-0.946,4.146c-1.398,2.013-3.476,2.881-5.783,3.281
			c-2.229,0.388-4.471,0.283-6.705-0.009c-0.363-0.048-0.693-0.157-0.918-0.49c-0.34-0.503-0.826-0.603-1.404-0.509
			c-2.146,0.35-4.301,0.646-6.453,0.972c-0.508,0.076-1.018,0.14-1.526,0.213c-0.332,0.048-0.564-0.062-0.709-0.368
			c-0.415-0.885-0.803-1.781-1.173-2.686c-0.048-0.113-0.094-0.25-0.024-0.348c0.291-0.417,0.155-0.857,0.09-1.292
			c-0.035-0.242-0.019-0.452,0.219-0.574c0.24-0.124,0.38,0.061,0.527,0.2c0.125,0.119,0.217,0.266,0.342,0.383
			c0.207,0.192,0.451,0.271,0.711,0.16c1.633-0.688,3.148-1.561,4.472-2.755C550.482,298.064,551.365,294.986,551.462,294.905"/>
	</g>
	<g>
		<defs>
			<rect id="SVGID_3_" x="0" y="0" width="1190.552" height="841.892"/>
		</defs>
		<clipPath id="SVGID_4_">
			<use xlink:href="#SVGID_3_"  overflow="visible"/>
		</clipPath>
		<path clip-path="url(#SVGID_4_)" fill="#A4B5C1" d="M582.777,329.542c4.965,0.775,9.789,1.529,14.717,2.299
			c-0.661-0.985-1.266-1.871-1.855-2.767c-2.964-4.485-5.881-8.997-8.299-13.808c-0.43-0.854-0.791-1.743-1.174-2.62
			c-0.08-0.186-0.154-0.38-0.131-0.597c0.021-0.197,0.086-0.377,0.271-0.465c0.192-0.092,0.264,0.109,0.365,0.204
			c2.151,2.037,4.327,4.045,6.608,5.941c1.256,1.043,2.659,1.469,4.232,1.598c4.021,0.33,8.047,0.263,12.069,0.155
			c3.165-0.086,6.326-0.272,9.473-0.672c1.616-0.206,3.088-0.86,4.592-1.417c2.313-0.857,4.671-1.562,7.128-1.85
			c4.088-0.479,8.012,0.119,11.74,1.896c0.123,0.059,0.268,0.091,0.369,0.175c0.809,0.67,1.54,0.44,2.395-0.019
			c2.004-1.078,4.057-2.065,5.844-3.502c0.631-0.508,1.215-1.063,1.713-1.697c1.543-1.96,1.623-3.84,0.287-6.243
			c-1.734-3.12-4.604-4.306-8.301-3.456c-2.349,0.541-4.434,1.674-6.513,2.831c-3.573,1.987-7.184,3.903-11.047,5.283
			c-2.8,0.999-5.646,1.732-8.653,1.728c-3.916-0.008-7.021-1.514-9.259-4.77c-1.364-1.982-2.414-4.08-2.758-6.495
			c-0.354-2.483,0.068-4.832,1.111-7.09c1.107-2.397,2.727-4.422,4.605-6.249c0.265-0.258,0.357-0.519,0.38-0.892
			c0.164-2.866,1.195-5.416,2.924-7.693c0.082-0.108,0.189-0.199,0.288-0.293c0.527-0.504,0.586-0.503,1.06,0.012
			c0.524,0.568,1.681,0.637,2.588,0.125c1.505-0.849,3.006-1.705,4.495-2.58c0.294-0.172,0.446-0.161,0.669,0.112
			c1.089,1.344,1.1,1.311,2.846,1.458c3.548,0.297,7.094,0.626,10.639,0.942c0.046,0.004,0.089,0.032,0.227,0.083
			c-0.361,0.264-0.67,0.489-0.979,0.712c-2.054,1.487-4.104,2.979-6.164,4.453c-0.302,0.218-0.359,0.325-0.002,0.549
			c0.789,0.494,1.555,1.029,2.444,1.623c-2.571,0.432-5.003,0.841-7.518,1.263c0.521,0.532,0.98,1.02,1.459,1.489
			c0.435,0.424,0.445,0.422-0.122,0.677c-2.389,1.078-4.827,2.008-7.427,2.443c-1.051,0.178-2.104,0.245-3.167,0.063
			c-0.673-0.115-1.293-0.34-1.807-0.794c-0.198-0.176-0.327-0.158-0.521,0c-2.07,1.7-3.557,3.771-3.877,6.488
			c-0.307,2.608,0.656,4.875,2.158,6.941c0.921,1.268,2.207,1.969,3.724,2.268c1.414,0.276,2.83,0.199,4.237-0.046
			c4.069-0.708,7.798-2.379,11.504-4.106c3.238-1.51,6.363-3.26,9.664-4.636c2.902-1.209,5.942-1.6,9.054-1.159
			c2.438,0.346,4.53,1.449,6.142,3.328c2.304,2.686,3.713,5.784,3.857,9.351c0.104,2.566-0.661,4.963-1.786,7.247
			c-1.725,3.501-4.161,6.468-6.921,9.19c-1.001,0.985-2.045,1.926-3.164,2.777c-0.178,0.137-0.274,0.294-0.313,0.505
			c-0.399,2.205-0.732,4.42-0.968,6.648c-0.244,2.302-0.395,4.607-0.359,6.92c0.028,1.884,0.161,3.763,0.615,5.601
			c0.631,2.552,2.2,4.526,3.97,6.369c2.421,2.522,5.242,4.563,8.036,6.636c0.604,0.448,1.218,0.89,1.756,1.42
			c0.151,0.148,0.366,0.316,0.259,0.567c-0.1,0.232-0.341,0.264-0.57,0.274c-0.563,0.028-1.13,0.032-1.69,0.087
			c-0.815,0.079-1.128,0.463-1.124,1.289c0.002,0.348,0.053,0.688,0.177,1.007c0.835,2.151,1.256,4.4,1.563,6.672
			c0.339,2.511,0.522,5.037,0.659,7.567c0.024,0.482-0.128,0.591-0.568,0.528s-0.891-0.044-1.331-0.099
			c-0.419-0.053-0.56,0.072-0.553,0.518c0.026,1.645-0.007,3.291,0.021,4.936c0.008,0.458-0.121,0.569-0.571,0.567
			c-5.416-0.017-10.834-0.011-16.25-0.012c-0.698,0-0.865-0.161-1.019-0.862c-0.127-0.585-0.068-1.164,0.027-1.736
			c0.193-1.167,0.527-2.3,1.023-3.376c0.545-1.182,1.479-1.628,2.771-1.412c1.305,0.219,2.522,0.739,3.804,1.045
			c2.29,0.548,3.974-0.263,4.778-2.33c0.354-0.913,0.437-1.86,0.313-2.828c-0.31-2.411-1.377-4.531-2.569-6.597
			c-1.244-2.152-2.716-4.155-4.116-6.204c-1.067-1.561-2.606-2.059-4.399-2.062c-1.678-0.003-3.358,0.067-5.033-0.106
			c-3.783-0.394-7.482-1.066-10.768-3.168c-2.348-1.502-4.059-3.599-5.566-5.893c-1.016-1.545-2.018-3.101-3.021-4.651
			c-0.992-1.529-2.417-2.083-4.11-2.229c-2.982-0.259-5.901,0.24-8.813,0.771c-5.044,0.92-10.001,2.247-15.02,3.284
			c-2.597,0.537-5.198,1.046-7.86,1.118c-0.338,0.009-0.674,0.001-1.053,0.001c0.867-1.46,3.119-2.716,5.177-2.925
			c-0.037-0.227-0.225-0.33-0.365-0.457c-2.002-1.806-4.201-3.354-6.418-4.878c-0.33-0.229-0.359-0.363-0.103-0.69
			c1.868-2.366,3.709-4.754,5.57-7.125c0.205-0.258,0.219-0.428,0.031-0.707C584.425,332.112,583.646,330.886,582.777,329.542"/>
	</g>
	<g>
		<defs>
			<rect id="SVGID_5_" x="0" y="0" width="1190.552" height="841.892"/>
		</defs>
		<clipPath id="SVGID_6_">
			<use xlink:href="#SVGID_5_"  overflow="visible"/>
		</clipPath>
		<path clip-path="url(#SVGID_6_)" fill="#A4B5C1" d="M585.802,352.881c-1.354,0-2.707-0.013-4.061,0.009
			c-0.396,0.007-0.517-0.122-0.471-0.506c0.07-0.606,0.348-0.942,0.983-1.074c2.109-0.438,4.244-0.726,6.379-1.022
			c3.2-0.446,6.403-0.875,9.606-1.303c2.881-0.386,5.759-0.788,8.625-1.271c1.653-0.277,3.308-0.551,4.994-0.498
			c1.908,0.061,3.489,0.781,4.501,2.427c1.933,3.14,4.241,6.014,6.315,9.052c0.56,0.821,1.063,1.675,1.454,2.592
			c0.153,0.365,0.267,0.741,0.308,1.135c0.05,0.474-0.039,0.931-0.49,1.148c-0.59,0.286-0.831,0.781-1,1.351
			c-0.358,1.207-0.46,2.457-0.498,3.702c-0.094,3.015,0.002,6.025,0.373,9.022c0.046,0.372,0.033,0.754,0.021,1.13
			c-0.046,1.255-0.793,1.876-2.03,1.69c-0.592-0.087-1.188-0.164-1.771-0.292c-0.56-0.121-0.884,0.124-1.109,0.588
			c-0.398,0.812-0.536,1.692-0.632,2.574c-0.103,0.936-0.157,1.875-0.201,2.815c-0.014,0.282-0.111,0.328-0.364,0.337
			c-2.875,0.098-5.75,0.173-8.626,0.208c-2.414,0.029-4.826,0.071-7.239-0.011c-1.243-0.043-1.287-0.023-1.422-1.229
			c-0.205-1.804-0.335-3.616,0.058-5.418c0.035-0.166,0.083-0.331,0.143-0.489c0.368-0.98,0.833-1.278,1.873-1.221
			c1.012,0.058,1.99,0.315,2.98,0.493c1.643,0.296,3.282,0.506,4.931,0.05c2.317-0.641,4.333-2.953,4.616-5.329
			c0.131-1.103-0.241-2.093-0.811-3.015c-0.848-1.374-1.992-2.484-3.241-3.481c-1.753-1.399-3.347-2.936-4.49-4.89
			c-0.636-1.083-1.14-2.215-1.312-3.477c-0.128-0.945-0.01-1.804,0.714-2.506c0.38-0.369,0.452-0.838,0.299-1.329
			c-0.348-1.116-1.153-1.892-2.041-2.573c-0.299-0.229-0.734-0.058-1.1-0.026c-2.611,0.218-5.227,0.331-7.844,0.43
			c-1.401,0.052-2.804,0.116-4.207,0.142c-1.405,0.023-2.811,0.005-4.215,0.005L585.802,352.881L585.802,352.881z"/>
	</g>
	<g>
		<defs>
			<rect id="SVGID_7_" x="0" y="0" width="1190.552" height="841.892"/>
		</defs>
		<clipPath id="SVGID_8_">
			<use xlink:href="#SVGID_7_"  overflow="visible"/>
		</clipPath>
		<path clip-path="url(#SVGID_8_)" fill="#A4B5C1" d="M561.914,354.859c-0.697,2.364-1.458,4.705-2.848,6.789
			c-0.368,0.554-0.824,1.048-1.326,1.485c-1.391,1.213-2.26,2.772-2.996,4.432c-0.729,1.642-1.223,3.38-2.065,4.974
			c-0.602,1.134-1.754,2.649-3.175,2.604c-1.144-0.036-1.608-0.076-2.311,0.758c-0.973,1.155-1.605,2.495-2.079,3.917
			c-0.208,0.624-0.196,0.617-0.849,0.447c-2.17-0.564-4.36-1.056-6.511-1.698c-0.081-0.024-0.165-0.054-0.229,0.035
			c-2.423-0.755-4.845-1.511-7.267-2.265c-0.503-0.271-1.049-0.441-1.574-0.648c-0.614-0.242-0.832-0.692-0.902-1.311
			c-0.051-0.438-0.01-0.887,0.107-1.312c0.414-1.52,0.981-2.977,1.72-4.367c0.272-0.515,0.538-1.033,0.841-1.532
			c0.408-0.675,0.566-0.723,1.271-0.321c1.549,0.882,3.109,1.74,4.688,2.566c1.262,0.66,2.56,1.238,3.868,1.793
			c0.717,0.304,1.349,0.236,1.948-0.302c0.83-0.743,1.428-1.661,2.011-2.589c1.424-2.269,2.577-4.682,3.707-7.104
			c1.021-2.188,1.957-4.415,2.918-6.629l0.208-3.073c0.035-0.538,0.574-0.896,1.086-0.719l9.322,3.226
			C561.826,354.135,562.018,354.506,561.914,354.859"/>
	</g>
</g>
</svg>
