<?xml version="1.0" encoding="utf-8"?>
<!-- Generator: Adobe Illustrator 15.1.0, SVG Export Plug-In . SVG Version: 6.00 Build 0)  -->
<!DOCTYPE svg PUBLIC "-//W3C//DTD SVG 1.1//EN" "http://www.w3.org/Graphics/SVG/1.1/DTD/svg11.dtd">
<svg version="1.1" id="Layer_1" xmlns="http://www.w3.org/2000/svg" xmlns:xlink="http://www.w3.org/1999/xlink" x="0px" y="0px"
	 width="289px" height="262px" viewBox="453.776 238.446 289 262" enable-background="new 453.776 238.446 289 262"
	 xml:space="preserve">
<g>
	<g>
		<g>
			<defs>
				<rect id="SVGID_1_" x="0" y="0" width="1190.552" height="841.891"/>
			</defs>
			<clipPath id="SVGID_2_">
				<use xlink:href="#SVGID_1_"  overflow="visible"/>
			</clipPath>
			<path clip-path="url(#SVGID_2_)" fill="#36393B" d="M485.611,464.304c-2.209-2.086-3.283-5.646-3.283-8.59
				c0-2.854,0.92-5.801,3.129-8.133c1.565-1.655,4.327-3.1,7.673-3.1c2.792,0,5.093,1.044,6.196,1.688
				c0.398,0.244,0.554,0.215,0.614,0l0.246-0.891c0.062-0.185,0.123-0.185,0.398-0.185c0.274,0,0.337,0.062,0.337,0.491
				c0,0.582,0.612,5.093,0.767,5.95c0.031,0.153,0,0.275-0.123,0.308l-0.46,0.123c-0.153,0.029-0.215,0-0.307-0.245
				c-0.431-1.013-1.105-2.485-2.395-3.807c-1.29-1.317-2.915-2.36-5.339-2.36c-5.492,0-7.701,4.878-7.67,9.356
				c0,1.779,0.552,5.246,2.945,7.887c2.086,2.332,3.835,2.574,5.891,2.574c3.467,0,6.167-1.898,7.579-3.896
				c0.092-0.153,0.153-0.186,0.246-0.092l0.396,0.306c0.094,0.063,0.153,0.123,0.063,0.277c-1.841,2.669-4.816,5.151-9.145,5.151
				C489.754,467.127,487.451,465.992,485.611,464.304"/>
		</g>
	</g>
	<g>
		<g>
			<defs>
				<rect id="SVGID_3_" x="0" y="0" width="1190.552" height="841.891"/>
			</defs>
			<clipPath id="SVGID_4_">
				<use xlink:href="#SVGID_3_"  overflow="visible"/>
			</clipPath>
			<path clip-path="url(#SVGID_4_)" fill="#36393B" d="M518.254,458.138c-0.309,0.767-1.994,5.43-2.147,6.075
				c-0.031,0.214-0.092,0.521-0.092,0.674c0,0.429,0.368,0.675,1.043,0.675h1.442c0.215,0,0.307,0.062,0.307,0.216v0.705
				c0,0.214-0.092,0.276-0.246,0.276c-0.43,0-1.688-0.093-3.498-0.093c-2.239,0-2.915,0.093-3.344,0.093
				c-0.154,0-0.215-0.063-0.215-0.245v-0.736c0-0.154,0.123-0.216,0.245-0.216h1.072c0.92,0,1.352-0.429,1.779-1.41
				c0.215-0.491,2.455-6.168,3.344-8.684c0.216-0.613,2.7-7.21,2.979-8.039c0.092-0.308,0.246-0.705,0.03-1.043
				c-0.093-0.122-0.216-0.276-0.216-0.399c0-0.091,0.063-0.213,0.277-0.272c0.857-0.187,2.208-1.105,2.546-1.535
				c0.154-0.152,0.246-0.275,0.399-0.275c0.185,0,0.246,0.187,0.338,0.521c0.583,1.934,2.976,8.807,3.559,10.77
				c0.705,2.396,2.7,8.103,3.129,8.99c0.522,1.012,1.318,1.38,2.086,1.38h1.015c0.184,0,0.246,0.093,0.246,0.216v0.769
				c0,0.15-0.094,0.215-0.309,0.215c-0.553,0-1.196-0.092-3.682-0.092c-2.546,0-3.621,0.092-4.326,0.092
				c-0.154,0-0.246-0.092-0.246-0.276v-0.705c0-0.185,0.092-0.216,0.276-0.216h0.766c0.86,0,1.137-0.307,0.921-1.165
				c-0.245-1.104-1.503-5.032-1.933-6.259h-7.547L518.254,458.138L518.254,458.138z M525.433,457.033
				c-0.276-0.921-2.761-8.592-2.915-9.052c-0.092-0.215-0.154-0.43-0.246-0.43c-0.123,0-0.245,0.215-0.337,0.461
				c-0.154,0.396-3.068,8.253-3.283,9.021H525.433z"/>
		</g>
	</g>
	<g>
		<g>
			<defs>
				<rect id="SVGID_5_" x="0" y="0" width="1190.552" height="841.891"/>
			</defs>
			<clipPath id="SVGID_6_">
				<use xlink:href="#SVGID_5_"  overflow="visible"/>
			</clipPath>
			<path clip-path="url(#SVGID_6_)" fill="#36393B" d="M549.853,446.049h-0.767c-0.982,0-3.651,0-4.85,0.368
				c-1.381,0.431-2.301,2.576-2.729,3.56c-0.063,0.153-0.154,0.185-0.309,0.153l-0.552-0.153c-0.092-0.03-0.184-0.063-0.122-0.245
				c0.308-1.104,1.38-5.063,1.441-5.398c0.062-0.398,0.185-0.49,0.307-0.49c0.153,0,0.246,0.028,0.368,0.123l0.396,0.273
				c0.555,0.398,0.859,0.491,1.749,0.521c1.628,0.062,2.915,0.185,5.801,0.185h1.473c3.344,0,4.664-0.123,6.167-0.185
				c0.674-0.03,1.074-0.123,1.595-0.431l0.583-0.366c0.153-0.095,0.245-0.123,0.368-0.123c0.153,0,0.214,0.092,0.276,0.489
				c0.061,0.367,0.645,4.174,0.89,5.522c0.031,0.152-0.03,0.214-0.184,0.244l-0.492,0.124c-0.122,0.029-0.153,0-0.245-0.216
				c-0.245-0.582-1.166-2.944-2.178-3.438c-0.922-0.461-3.807-0.521-5.31-0.521h-0.857v8.743c0,0.432,0,9.021,0.028,9.542
				c0.063,0.77,0.309,1.229,1.045,1.229h1.934c0.275,0,0.307,0.093,0.307,0.308v0.646c0,0.151-0.03,0.245-0.307,0.245
				c-0.309,0-1.289-0.094-4.295-0.094c-2.946,0-4.234,0.094-4.664,0.094c-0.245,0-0.276-0.123-0.276-0.309v-0.583
				c0-0.215,0.031-0.308,0.214-0.308h2.086c0.614,0,0.981-0.368,1.014-0.736c0.092-0.89,0.092-10.309,0.092-10.892v-7.885
				L549.853,446.049L549.853,446.049z"/>
		</g>
	</g>
	<g>
		<g>
			<defs>
				<rect id="SVGID_7_" x="0" y="0" width="1190.552" height="841.891"/>
			</defs>
			<clipPath id="SVGID_8_">
				<use xlink:href="#SVGID_7_"  overflow="visible"/>
			</clipPath>
			<path clip-path="url(#SVGID_8_)" fill="#36393B" d="M577.371,454.916c0.245,0,3.528-0.121,3.896-0.185
				c0.89-0.153,1.135-0.396,1.412-1.351c0.092-0.308,0.214-0.919,0.245-1.503c0-0.153,0.092-0.216,0.215-0.216l0.766,0.03
				c0.154,0,0.215,0.122,0.187,0.245c-0.093,0.524-0.093,3.039-0.093,3.499c0,1.074,0.122,2.546,0.186,3.19
				c0,0.151-0.063,0.215-0.186,0.244l-0.676,0.094c-0.151,0.028-0.214-0.063-0.246-0.276c-0.061-0.398-0.244-1.104-0.337-1.441
				c-0.185-0.645-0.521-1.104-1.318-1.195c-1.442-0.153-3.561-0.153-4.052-0.153v1.902c0,1.655,0.063,4.633,0.063,5.246
				c0.031,1.596,0.798,2.209,1.749,2.394c0.613,0.122,1.503,0.215,2.271,0.215c0.521,0,2.057-0.031,2.699-0.093
				c0.521-0.063,1.872-0.398,2.669-1.073c0.368-0.307,2.086-2.516,2.518-3.222c0.092-0.153,0.185-0.276,0.367-0.184l0.49,0.273
				c0.153,0.092,0.153,0.187,0.063,0.43l-1.626,4.512c-0.092,0.274-0.309,0.461-0.675,0.461c-0.153,0-0.828-0.03-2.67-0.063
				c-1.842,0-4.816-0.028-9.604-0.028c-1.135,0-1.995,0.028-2.607,0.028c-0.645,0.031-1.044,0.063-1.318,0.063
				c-0.186,0-0.276-0.063-0.276-0.215v-0.828c0-0.123,0.092-0.154,0.309-0.154h1.227c1.412,0,1.535-0.214,1.535-1.349v-10.279
				c0-2.546-0.063-6.382-0.093-6.688c-0.122-0.979-0.431-1.195-1.564-1.195h-1.104c-0.154,0-0.246-0.029-0.246-0.214v-0.829
				c0-0.093,0.061-0.152,0.214-0.152c0.675,0,1.749,0.092,3.771,0.092h1.353c3.038,0,6.074-0.029,9.11-0.029
				c0.491,0,1.074-0.063,1.229-0.063s0.214,0.063,0.245,0.152l1.563,4.938c0.031,0.122,0.031,0.215-0.092,0.276l-0.46,0.245
				c-0.092,0.062-0.215-0.03-0.246-0.093c-0.062-0.122-2.332-3.036-3.066-3.497c-0.646-0.432-1.503-0.8-2.333-0.829l-5.461-0.122
				L577.371,454.916L577.371,454.916z"/>
		</g>
	</g>
	<g>
		<g>
			<defs>
				<rect id="SVGID_9_" x="0" y="0" width="1190.552" height="841.891"/>
			</defs>
			<clipPath id="SVGID_10_">
				<use xlink:href="#SVGID_9_"  overflow="visible"/>
			</clipPath>
			<path clip-path="url(#SVGID_10_)" fill="#36393B" d="M603.111,465.531c-0.369-0.274-0.553-0.368-0.705-0.368
				c-0.185,0-0.308,0.216-0.492,0.521c-0.184,0.338-0.338,0.368-0.552,0.368c-0.185,0-0.338-0.152-0.274-0.491
				c0.121-0.767,0.43-4.663,0.521-5.553c0.03-0.187,0.092-0.187,0.215-0.187l0.461,0.031c0.123,0,0.186,0.063,0.186,0.245
				c0.03,0.98,0.092,1.994,1.104,3.56c0.922,1.442,2.609,2.271,4.297,2.271c1.843,0,4.173-1.135,4.173-3.896
				c0-3.16-2.271-4.326-4.726-5.186c-0.951-0.337-3.16-1.104-4.479-2.485c-1.015-1.012-1.534-2.454-1.534-4.479
				c0-1.534,0.951-3.037,1.9-3.929c1.104-1.043,2.641-1.474,4.297-1.474c1.75,0,3.1,0.521,3.619,0.77
				c0.275,0.151,0.432,0.121,0.582-0.03l0.399-0.368c0.153-0.123,0.246-0.185,0.396-0.185c0.154,0,0.246,0.244,0.246,0.521
				c0,1.074,0.398,4.204,0.432,4.878c0,0.154-0.031,0.215-0.153,0.246l-0.368,0.092c-0.092,0.031-0.154,0-0.184-0.092
				c-0.246-0.89-0.646-2.086-1.903-3.405c-0.828-0.89-1.902-1.317-3.344-1.317c-2.73,0-3.713,2.022-3.713,3.59
				c0,0.856,0.184,1.871,0.949,2.669c0.892,0.889,2.607,1.563,3.498,1.841c2.116,0.675,3.835,1.196,4.939,2.546
				c0.797,0.952,1.35,2.147,1.35,4.173c0,3.621-2.209,6.721-6.258,6.721C605.843,467.127,604.339,466.483,603.111,465.531"/>
		</g>
	</g>
	<g>
		<g>
			<defs>
				<rect id="SVGID_11_" x="0" y="0" width="1190.552" height="841.891"/>
			</defs>
			<clipPath id="SVGID_12_">
				<use xlink:href="#SVGID_11_"  overflow="visible"/>
			</clipPath>
			<path clip-path="url(#SVGID_12_)" fill="#36393B" d="M627.868,453.321c0-1.135-0.063-4.879-0.093-5.431
				c-0.092-1.78-0.583-1.842-1.994-1.842h-0.951c-0.185,0-0.244-0.063-0.244-0.214v-0.77c0-0.152,0.062-0.214,0.244-0.214
				c0.491,0,1.871,0.092,4.081,0.092c0.981,0,2.822-0.092,3.896-0.092c2.394,0,4.354,0.214,5.431,0.828
				c1.749,0.95,2.362,2.362,2.362,4.173c0,3.037-1.35,3.805-3.743,5.063l0.092,0.063c2.979,0.98,4.973,2.822,4.973,6.074
				c0,1.563-0.951,3.713-2.363,4.603c-1.288,0.798-3.037,1.104-5.86,1.104c-2.115,0-3.313-0.092-4.602-0.092
				c-1.534,0-3.344,0.092-3.928,0.092c-0.367,0-0.431-0.063-0.431-0.187v-0.797c0-0.153,0.063-0.216,0.276-0.216h1.473
				c0.951,0,1.104-0.368,1.229-1.349c0.092-0.707,0.152-4.759,0.152-7.272V453.321L627.868,453.321z M630.568,454.517
				c0.583,0.062,1.105,0.062,1.627,0.062c1.748,0,3.129-0.274,3.865-0.798c1.258-0.951,1.718-2.332,1.718-3.682
				c0-1.166-0.368-2.395-1.503-3.222c-1.104-0.77-2.639-1.043-4.203-1.043c-0.43,0-0.768-0.03-1.013,0.028
				c-0.245,0.063-0.43,0.276-0.43,0.554c-0.03,0.612-0.063,3.282-0.063,5.829L630.568,454.517L630.568,454.517z M630.568,461.697
				c0,2.823,0.676,4.081,3.222,4.081c2.577,0,4.94-1.228,4.94-4.879c0-2.485-1.259-4.111-3.069-4.816
				c-1.258-0.489-2.698-0.521-4.108-0.521h-0.982L630.568,461.697L630.568,461.697z"/>
		</g>
	</g>
	<g>
		<g>
			<defs>
				<rect id="SVGID_13_" x="0" y="0" width="1190.552" height="841.891"/>
			</defs>
			<clipPath id="SVGID_14_">
				<use xlink:href="#SVGID_13_"  overflow="visible"/>
			</clipPath>
			<path clip-path="url(#SVGID_14_)" fill="#36393B" d="M662.534,460.961c0,1.194,0.096,3.189,0.123,3.526
				c0.094,0.982,0.553,1.073,1.353,1.073h1.195c0.216,0,0.216,0.093,0.216,0.216v0.705c0,0.185,0,0.275-0.216,0.275
				c-0.366,0-1.563-0.093-4.142-0.093c-2.763,0-3.714,0.093-4.051,0.093c-0.122,0-0.186-0.093-0.186-0.244v-0.736
				c0-0.123,0.03-0.216,0.214-0.216h1.505c0.798,0,1.044-0.307,1.073-0.767c0.03-0.432,0.092-2.854,0.092-5.706v-1.78
				c-0.396-0.797-5.491-9.45-6.382-10.523c-0.396-0.46-1.104-0.735-1.596-0.735h-0.768c-0.187,0-0.215-0.093-0.215-0.214v-0.8
				c0-0.122,0.028-0.184,0.215-0.184c0.275,0,1.72,0.092,3.591,0.092c3.159,0,4.265-0.092,4.569-0.092
				c0.187,0,0.216,0.062,0.216,0.152v0.769c0,0.152-0.029,0.274-0.216,0.274h-1.013c-0.921,0-1.043,0.275-0.921,1.014
				c0.092,0.49,3.867,7.149,4.786,8.897c1.136-1.779,5.431-8.162,5.553-8.716c0.123-0.521,0.278-1.195-1.011-1.195h-0.829
				c-0.185,0-0.215-0.093-0.215-0.274v-0.737c0-0.121,0.03-0.184,0.215-0.184c0.308,0,1.565,0.092,3.621,0.092
				c1.811,0,2.483-0.092,2.761-0.092c0.215,0,0.246,0.063,0.246,0.184v0.737c0,0.186-0.031,0.274-0.246,0.274h-0.767
				c-0.461,0-0.981,0.185-1.503,0.676c-0.614,0.583-6.106,8.529-7.273,10.217v4.021H662.534L662.534,460.961z"/>
		</g>
	</g>
	<g>
		<g>
			<defs>
				<rect id="SVGID_15_" x="0" y="0" width="1190.552" height="841.891"/>
			</defs>
			<clipPath id="SVGID_16_">
				<use xlink:href="#SVGID_15_"  overflow="visible"/>
			</clipPath>
			<path clip-path="url(#SVGID_16_)" fill="#36393B" d="M683.458,447.123c0,2.914-2.67,4.849-3.223,5.187
				c-0.152,0.093-0.336,0.245-0.552,0.245c-0.214,0-0.308-0.091-0.308-0.245c0-0.153,0-0.215,0.244-0.398
				c0.646-0.612,1.935-1.964,1.935-3.468c0-0.396-0.244-0.768-0.459-0.856c-0.275-0.122-1.564-0.432-1.564-1.78
				c0-0.705,0.552-1.319,1.533-1.319C682.017,444.484,683.458,445.405,683.458,447.123"/>
		</g>
	</g>
	<g>
		<g>
			<defs>
				<rect id="SVGID_17_" x="0" y="0" width="1190.552" height="841.891"/>
			</defs>
			<clipPath id="SVGID_18_">
				<use xlink:href="#SVGID_17_"  overflow="visible"/>
			</clipPath>
			<path clip-path="url(#SVGID_18_)" fill="#36393B" d="M696.189,465.531c-0.367-0.274-0.552-0.368-0.705-0.368
				c-0.184,0-0.307,0.216-0.491,0.521c-0.185,0.338-0.337,0.368-0.552,0.368c-0.185,0-0.337-0.152-0.276-0.491
				c0.123-0.767,0.432-4.663,0.521-5.553c0.031-0.187,0.093-0.187,0.216-0.187l0.46,0.031c0.123,0,0.188,0.063,0.188,0.245
				c0.027,0.98,0.091,1.994,1.104,3.56c0.92,1.442,2.607,2.271,4.295,2.271c1.842,0,4.173-1.135,4.173-3.896
				c0-3.16-2.27-4.326-4.725-5.186c-0.951-0.337-3.16-1.104-4.479-2.485c-1.014-1.012-1.533-2.454-1.533-4.479
				c0-1.534,0.949-3.037,1.9-3.929c1.104-1.043,2.642-1.474,4.295-1.474c1.75,0,3.102,0.521,3.621,0.77
				c0.276,0.151,0.43,0.121,0.583-0.03l0.398-0.368c0.153-0.123,0.246-0.185,0.397-0.185c0.153,0,0.245,0.244,0.245,0.521
				c0,1.074,0.399,4.204,0.43,4.878c0,0.154-0.028,0.215-0.151,0.246l-0.368,0.092c-0.092,0.031-0.153,0-0.184-0.092
				c-0.246-0.89-0.646-2.086-1.903-3.405c-0.828-0.89-1.902-1.317-3.344-1.317c-2.731,0-3.713,2.022-3.713,3.59
				c0,0.856,0.185,1.871,0.949,2.669c0.892,0.889,2.608,1.563,3.498,1.841c2.117,0.675,3.834,1.196,4.939,2.546
				c0.798,0.952,1.351,2.147,1.351,4.173c0,3.621-2.21,6.721-6.26,6.721C698.923,467.127,697.418,466.483,696.189,465.531"/>
		</g>
	</g>
</g>
<g>
	<g>
		<g>
			<defs>
				<rect id="SVGID_19_" x="-0.001" y="0" width="1190.551" height="841.891"/>
			</defs>
			<clipPath id="SVGID_20_">
				<use xlink:href="#SVGID_19_"  overflow="visible"/>
			</clipPath>
			<path clip-path="url(#SVGID_20_)" fill="#A4B5C1" d="M551.461,294.906c-0.864-0.165-1.669-0.321-2.477-0.472
				c-1.26-0.233-2.521-0.461-3.781-0.696c-0.76-0.142-0.945,0.019-0.965,0.804c-0.011,0.485,0.127,0.976,0.001,1.494
				c-0.326-0.146-0.451-0.414-0.588-0.658c-0.225-0.403-0.408-0.834-0.508-1.283c-0.138-0.616-0.35-1.132-1.076-1.221
				c-0.196-0.023-0.252-0.192-0.306-0.366c-0.671-2.135-1.343-4.269-2.028-6.397c-0.077-0.24-0.025-0.367,0.164-0.513
				c0.996-0.758,1.986-1.521,2.968-2.294c0.356-0.28,0.773-0.237,1.173-0.275c1.022-0.098,2.055-0.13,3.067-0.275
				c1.609-0.23,3.151-0.764,4.72-1.173c3.503-0.915,7.001-1.851,10.501-2.778c0.047-0.012,0.091-0.034,0.182-0.068
				c-1.013-1.55-2.037-3.102-0.767-4.995c0.098,1.128,0.877,1.736,1.698,2.302c1.462,1.004,3.118,1.626,4.709,2.377
				c0.298,0.142,0.367-0.079,0.488-0.213c0.92-1.021,1.911-1.963,3.03-2.765c0.461-0.329,0.948-0.614,1.479-0.818
				c0.802-0.31,1.354-0.113,1.761,0.646c0.421,0.784,0.554,1.651,0.614,2.522c0.075,1.104,0.054,1.093,1.17,0.993
				c3.905-0.347,7.813-0.61,11.729-0.79c0.821-0.038,1.646-0.017,2.47-0.005c0.584,0.008,0.657,0.095,0.571,0.68
				c-0.072,0.511-0.265,0.988-0.462,1.463c-0.565,1.36-1.271,2.651-2.03,3.911c-0.208,0.345-0.212,0.54,0.081,0.854
				c2.491,2.663,4.963,5.35,7.438,8.028c0.078,0.085,0.15,0.178,0.256,0.304c-1.058,0.201-2.073,0.386-3.083,0.587
				c-0.452,0.09-0.89,0.23-1.325,0.392c-0.441,0.163-0.516,0.396-0.332,0.82c0.974,2.243,2.038,4.443,3.082,6.653
				c0.239,0.506,0.484,1.009,0.763,1.586c-1.237-0.302-2.391-0.593-3.548-0.859c-0.915-0.212-1.833-0.427-2.776-0.467
				c-0.61-0.025-0.671,0.066-0.415,0.643c0.669,1.504,1.536,2.902,2.394,4.302c1.065,1.734,2.16,3.449,3.305,5.269
				c-4.271-1.226-8.451-2.426-12.722-3.65c1.3,3.705,2.94,7.149,4.781,10.504c1.834,3.341,3.864,6.564,6,9.853
				c-4.81-0.872-9.508-1.725-14.297-2.595c0.381,0.991,0.569,1.922,1.154,2.723c0.96,1.313,1.833,2.688,2.771,4.016
				c0.214,0.303,0.168,0.48-0.036,0.746c-1.813,2.364-3.606,4.745-5.426,7.105c-0.241,0.314-0.231,0.463,0.094,0.704
				c1.973,1.453,3.926,2.932,5.885,4.402c0.095,0.069,0.185,0.146,0.337,0.267c-0.909,0.229-1.76,0.428-2.604,0.656
				c-1.421,0.385-2.806,0.856-4.102,1.578c-0.871,0.483-1.236,1.216-1.322,2.166c-0.199,2.21,0.031,4.412,0.07,6.618
				c0.048,2.671,0.08,5.343-0.677,7.946c-0.179,0.61-0.421,1.196-0.763,1.731c-1.021,1.601-1.401,3.393-1.617,5.241
				c-0.207,1.783-0.161,3.59-0.492,5.363c-0.235,1.261-0.765,2.212-2.135,2.592c-1.102,0.305-1.681,1.242-2.103,2.249
				c-0.584,1.392-0.791,2.859-0.82,4.356c-0.012,0.657-0.004,0.647-0.677,0.68c-2.24,0.106-4.477,0.29-6.72,0.315
				c-0.084,0.002-0.175-0.003-0.209,0.102h-7.611c-0.561-0.108-1.132-0.109-1.696-0.15c-0.589-0.043-0.925-0.341-1.169-0.812
				c-0.23-0.446-0.35-0.927-0.369-1.433c-0.058-1.58,0.052-3.148,0.344-4.705c0.106-0.572,0.206-1.146,0.347-1.713
				c0.188-0.766,0.326-0.857,1.117-0.685c1.74,0.382,3.485,0.736,5.24,1.056c1.399,0.255,2.812,0.421,4.227,0.562
				c0.774,0.077,1.356-0.176,1.77-0.867c0.572-0.956,0.869-2.011,1.149-3.069c0.685-2.59,1.07-5.235,1.427-7.886
				c0.322-2.393,0.556-4.796,0.814-7.196c0.277-2.579,0.288-5.152,0.045-7.739c-0.591-6.285-1.683-12.491-2.879-18.683
				c-0.157-0.806-0.32-0.912-1.12-0.782c-0.254,0.042-0.512,0.058-0.765,0.106c-0.64,0.124-0.729,0.229-0.603,0.862
				c0.258,1.276,0.492,2.559,0.74,3.837c0.864,4.475,1.714,8.952,2.576,13.429c0.061,0.316,0.25,0.7-0.08,0.962
				c-0.317,0.25-0.631-0.028-0.909-0.152c-3.212-1.421-6.565-2.313-9.768-3.759c-0.315-0.144-0.359-0.855-0.435-1.176
				c-0.035-0.151-0.053-0.306-0.048-0.46c0.063-2.021-0.163-4.039-0.104-6.062c0.018-0.587-0.07-1.162-0.112-1.742
				c-0.035-0.479-0.19-0.63-0.685-0.645c-0.754-0.021-1.509,0.001-2.263-0.012c-0.855-0.013-0.963-0.129-0.828-0.975
				c0.313-1.979,0.622-3.96,0.953-5.938c0.161-0.967,0.088-1.037-0.853-0.801c-1.214,0.306-2.428,0.606-3.672,0.762
				c-0.707,0.087-0.903-0.097-0.858-0.813c0.187-2.977,0.952-5.807,2.155-8.524c1.935-4.368,4.647-8.222,7.801-11.782
				c1.181-1.334,2.373-2.654,3.712-3.84c0.466-0.412,0.925-0.521,1.498-0.436c0.931,0.137,1.856,0.314,2.809,0.271
				c1.774-0.084,3.505-0.34,5.154-1.057c2.35-1.021,4.232-3.762,4.207-6.239c-0.018-1.693-0.776-3.055-1.986-4.193
				c0.609,0.749,1.22,1.492,1.393,2.493c0.264,1.521-0.08,2.898-0.946,4.146c-1.399,2.013-3.475,2.881-5.783,3.281
				c-2.229,0.388-4.471,0.283-6.705-0.009c-0.364-0.048-0.693-0.157-0.919-0.49c-0.339-0.503-0.826-0.604-1.403-0.509
				c-2.146,0.35-4.302,0.646-6.453,0.972c-0.509,0.076-1.019,0.14-1.526,0.213c-0.332,0.048-0.565-0.062-0.709-0.368
				c-0.415-0.885-0.804-1.78-1.173-2.686c-0.048-0.113-0.093-0.25-0.024-0.348c0.291-0.417,0.155-0.857,0.09-1.292
				c-0.035-0.242-0.019-0.452,0.219-0.574c0.239-0.124,0.38,0.061,0.526,0.2c0.125,0.118,0.217,0.266,0.344,0.383
				c0.207,0.191,0.45,0.271,0.711,0.16c1.631-0.688,3.147-1.562,4.471-2.756C550.482,298.065,551.365,294.987,551.461,294.906"/>
		</g>
	</g>
	<g>
		<g>
			<defs>
				<rect id="SVGID_21_" x="-0.001" y="0" width="1190.551" height="841.891"/>
			</defs>
			<clipPath id="SVGID_22_">
				<use xlink:href="#SVGID_21_"  overflow="visible"/>
			</clipPath>
			<path clip-path="url(#SVGID_22_)" fill="#A4B5C1" d="M582.777,329.542c4.965,0.774,9.789,1.528,14.717,2.299
				c-0.662-0.985-1.266-1.871-1.855-2.767c-2.964-4.485-5.881-8.997-8.299-13.809c-0.431-0.854-0.791-1.743-1.175-2.62
				c-0.08-0.186-0.153-0.38-0.131-0.597c0.021-0.197,0.086-0.377,0.271-0.465c0.191-0.092,0.264,0.108,0.364,0.204
				c2.151,2.037,4.327,4.045,6.609,5.94c1.255,1.043,2.66,1.47,4.232,1.599c4.021,0.33,8.047,0.263,12.069,0.154
				c3.164-0.086,6.326-0.271,9.474-0.672c1.615-0.206,3.088-0.859,4.592-1.417c2.313-0.856,4.67-1.562,7.127-1.85
				c4.088-0.479,8.012,0.119,11.74,1.896c0.123,0.06,0.268,0.091,0.369,0.175c0.809,0.671,1.541,0.44,2.395-0.019
				c2.004-1.078,4.06-2.065,5.844-3.502c0.631-0.508,1.216-1.063,1.716-1.697c1.541-1.96,1.62-3.84,0.284-6.243
				c-1.733-3.12-4.604-4.306-8.301-3.456c-2.348,0.541-4.434,1.675-6.512,2.831c-3.574,1.987-7.185,3.903-11.047,5.283
				c-2.799,0.999-5.646,1.732-8.654,1.729c-3.916-0.009-7.02-1.515-9.258-4.771c-1.365-1.981-2.414-4.08-2.758-6.495
				c-0.355-2.482,0.067-4.832,1.11-7.09c1.107-2.396,2.728-4.422,4.605-6.249c0.264-0.258,0.356-0.519,0.379-0.892
				c0.164-2.866,1.195-5.416,2.924-7.693c0.082-0.107,0.189-0.199,0.289-0.293c0.527-0.504,0.586-0.503,1.062,0.012
				c0.522,0.568,1.68,0.638,2.586,0.125c1.506-0.849,3.006-1.705,4.495-2.58c0.294-0.172,0.445-0.16,0.669,0.112
				c1.09,1.344,1.1,1.312,2.846,1.458c3.549,0.297,7.094,0.626,10.639,0.942c0.047,0.004,0.09,0.032,0.228,0.083
				c-0.361,0.264-0.669,0.488-0.979,0.712c-2.053,1.487-4.104,2.979-6.164,4.453c-0.301,0.218-0.356,0.325-0.002,0.549
				c0.789,0.494,1.555,1.029,2.445,1.623c-2.572,0.432-5.004,0.841-7.519,1.263c0.521,0.532,0.98,1.021,1.459,1.489
				c0.435,0.424,0.445,0.422-0.123,0.677c-2.389,1.078-4.825,2.008-7.426,2.443c-1.051,0.178-2.104,0.245-3.168,0.063
				c-0.672-0.114-1.293-0.34-1.807-0.794c-0.197-0.176-0.326-0.158-0.521,0c-2.069,1.7-3.557,3.771-3.877,6.488
				c-0.307,2.608,0.656,4.875,2.158,6.941c0.922,1.268,2.207,1.969,3.725,2.268c1.414,0.276,2.83,0.199,4.236-0.046
				c4.07-0.708,7.799-2.379,11.504-4.106c3.238-1.51,6.363-3.26,9.664-4.636c2.902-1.209,5.943-1.6,9.055-1.159
				c2.438,0.347,4.529,1.449,6.142,3.328c2.305,2.687,3.713,5.784,3.856,9.352c0.105,2.565-0.659,4.963-1.784,7.247
				c-1.726,3.501-4.162,6.468-6.923,9.189c-1,0.985-2.045,1.926-3.164,2.777c-0.178,0.137-0.272,0.294-0.313,0.505
				c-0.398,2.205-0.732,4.42-0.967,6.647c-0.244,2.303-0.396,4.607-0.359,6.921c0.027,1.884,0.16,3.763,0.615,5.601
				c0.631,2.552,2.199,4.526,3.969,6.369c2.422,2.521,5.242,4.563,8.037,6.636c0.604,0.448,1.217,0.89,1.756,1.42
				c0.15,0.148,0.365,0.316,0.258,0.567c-0.1,0.231-0.34,0.264-0.567,0.273c-0.564,0.028-1.131,0.032-1.691,0.087
				c-0.815,0.079-1.129,0.464-1.125,1.289c0.002,0.349,0.053,0.688,0.178,1.008c0.834,2.15,1.256,4.399,1.563,6.672
				c0.338,2.511,0.521,5.037,0.658,7.566c0.024,0.482-0.127,0.591-0.568,0.528c-0.438-0.063-0.891-0.044-1.33-0.099
				c-0.42-0.054-0.561,0.071-0.553,0.518c0.024,1.645-0.008,3.291,0.021,4.936c0.009,0.458-0.121,0.569-0.569,0.567
				c-5.418-0.017-10.834-0.011-16.252-0.012c-0.697,0-0.865-0.161-1.019-0.862c-0.127-0.585-0.067-1.164,0.027-1.736
				c0.192-1.167,0.526-2.3,1.022-3.376c0.545-1.182,1.479-1.628,2.771-1.411c1.305,0.219,2.521,0.738,3.803,1.045
				c2.291,0.548,3.976-0.264,4.779-2.33c0.354-0.913,0.436-1.86,0.313-2.828c-0.311-2.411-1.377-4.531-2.569-6.598
				c-1.244-2.151-2.716-4.154-4.115-6.203c-1.068-1.562-2.607-2.06-4.4-2.063c-1.678-0.003-3.356,0.067-5.033-0.105
				c-3.782-0.395-7.481-1.066-10.768-3.168c-2.348-1.503-4.059-3.6-5.566-5.894c-1.016-1.545-2.018-3.101-3.02-4.651
				c-0.992-1.528-2.418-2.083-4.111-2.229c-2.981-0.259-5.899,0.24-8.813,0.771c-5.045,0.921-10.001,2.247-15.021,3.284
				c-2.597,0.537-5.198,1.046-7.859,1.118c-0.337,0.009-0.675,0.001-1.054,0.001c0.867-1.46,3.119-2.716,5.178-2.925
				c-0.037-0.227-0.226-0.33-0.365-0.457c-2.003-1.806-4.202-3.354-6.418-4.878c-0.331-0.229-0.36-0.363-0.104-0.69
				c1.868-2.365,3.709-4.754,5.571-7.125c0.204-0.258,0.218-0.428,0.031-0.707C584.424,332.112,583.647,330.886,582.777,329.542"/>
		</g>
	</g>
	<g>
		<g>
			<defs>
				<rect id="SVGID_23_" x="-0.001" y="0" width="1190.551" height="841.891"/>
			</defs>
			<clipPath id="SVGID_24_">
				<use xlink:href="#SVGID_23_"  overflow="visible"/>
			</clipPath>
			<path clip-path="url(#SVGID_24_)" fill="#A4B5C1" d="M585.802,352.881c-1.354,0-2.707-0.013-4.062,0.009
				c-0.396,0.007-0.516-0.122-0.471-0.506c0.071-0.606,0.348-0.942,0.984-1.074c2.108-0.438,4.243-0.726,6.379-1.021
				c3.201-0.446,6.402-0.875,9.605-1.304c2.881-0.386,5.761-0.788,8.625-1.271c1.654-0.277,3.31-0.551,4.994-0.498
				c1.908,0.061,3.49,0.781,4.502,2.427c1.935,3.141,4.24,6.015,6.314,9.052c0.561,0.821,1.063,1.676,1.455,2.593
				c0.151,0.364,0.266,0.74,0.307,1.135c0.051,0.474-0.039,0.931-0.49,1.147c-0.59,0.286-0.83,0.781-1,1.352
				c-0.356,1.207-0.459,2.457-0.498,3.702c-0.094,3.015,0.003,6.024,0.373,9.021c0.048,0.372,0.033,0.754,0.021,1.13
				c-0.047,1.256-0.793,1.876-2.031,1.69c-0.592-0.087-1.186-0.164-1.77-0.292c-0.562-0.121-0.886,0.124-1.109,0.588
				c-0.398,0.813-0.537,1.692-0.633,2.574c-0.103,0.936-0.156,1.875-0.201,2.814c-0.014,0.282-0.111,0.328-0.363,0.338
				c-2.875,0.098-5.75,0.173-8.627,0.208c-2.414,0.028-4.826,0.07-7.237-0.012c-1.242-0.043-1.287-0.022-1.423-1.229
				c-0.204-1.805-0.336-3.616,0.058-5.418c0.037-0.166,0.084-0.331,0.143-0.489c0.369-0.98,0.834-1.278,1.873-1.221
				c1.012,0.058,1.99,0.314,2.982,0.493c1.641,0.296,3.281,0.506,4.93,0.05c2.318-0.642,4.332-2.953,4.615-5.329
				c0.131-1.104-0.24-2.093-0.812-3.016c-0.848-1.374-1.991-2.483-3.239-3.48c-1.754-1.399-3.349-2.937-4.49-4.89
				c-0.637-1.083-1.141-2.216-1.313-3.478c-0.127-0.945-0.01-1.804,0.716-2.506c0.379-0.369,0.45-0.838,0.299-1.329
				c-0.349-1.116-1.154-1.892-2.041-2.573c-0.299-0.229-0.734-0.058-1.101-0.025c-2.61,0.218-5.227,0.331-7.844,0.43
				c-1.401,0.052-2.804,0.116-4.207,0.142c-1.405,0.023-2.811,0.005-4.215,0.005L585.802,352.881L585.802,352.881z"/>
		</g>
	</g>
	<g>
		<g>
			<defs>
				<rect id="SVGID_25_" x="-0.001" y="0" width="1190.551" height="841.891"/>
			</defs>
			<clipPath id="SVGID_26_">
				<use xlink:href="#SVGID_25_"  overflow="visible"/>
			</clipPath>
			<path clip-path="url(#SVGID_26_)" fill="#A4B5C1" d="M561.912,354.86c-0.696,2.364-1.458,4.705-2.847,6.789
				c-0.369,0.555-0.825,1.048-1.327,1.485c-1.39,1.213-2.259,2.771-2.996,4.432c-0.728,1.643-1.222,3.38-2.064,4.975
				c-0.603,1.134-1.754,2.648-3.175,2.604c-1.145-0.036-1.609-0.076-2.312,0.758c-0.972,1.155-1.604,2.495-2.079,3.917
				c-0.208,0.624-0.195,0.617-0.849,0.447c-2.17-0.563-4.36-1.056-6.51-1.698c-0.081-0.023-0.165-0.054-0.229,0.035
				c-2.423-0.755-4.845-1.511-7.267-2.265c-0.502-0.271-1.048-0.441-1.574-0.648c-0.614-0.242-0.832-0.691-0.902-1.311
				c-0.05-0.438-0.009-0.888,0.107-1.313c0.415-1.52,0.981-2.977,1.72-4.367c0.273-0.515,0.539-1.032,0.841-1.531
				c0.408-0.676,0.567-0.724,1.271-0.321c1.548,0.882,3.11,1.74,4.688,2.566c1.263,0.659,2.561,1.237,3.868,1.793
				c0.717,0.304,1.35,0.235,1.948-0.303c0.831-0.743,1.428-1.661,2.011-2.589c1.424-2.269,2.578-4.682,3.707-7.104
				c1.021-2.188,1.957-4.415,2.918-6.629l0.208-3.073c0.036-0.538,0.575-0.896,1.086-0.719l9.322,3.226
				C561.824,354.136,562.018,354.507,561.912,354.86"/>
		</g>
	</g>
</g>
</svg>